<?xml version="1.0" encoding="UTF-8" standalone="no"?>
<!DOCTYPE svg PUBLIC "-//W3C//DTD SVG 1.1//EN"
 "http://www.w3.org/Graphics/SVG/1.1/DTD/svg11.dtd">
<!-- Generated by graphviz version 2.43.0 (0)
 -->
<!-- Title: %3 Pages: 1 -->
<svg width="2736pt" height="476pt"
 viewBox="0.00 0.00 2736.46 476.00" xmlns="http://www.w3.org/2000/svg" xmlns:xlink="http://www.w3.org/1999/xlink">
<g id="graph0" class="graph" transform="scale(1 1) rotate(0) translate(4 472)">
<title>%3</title>
<polygon fill="white" stroke="transparent" points="-4,4 -4,-472 2732.46,-472 2732.46,4 -4,4"/>
<!-- X -->
<g id="node1" class="node">
<title>X</title>
<ellipse fill="none" stroke="grey" cx="1563.78" cy="-450" rx="27" ry="18"/>
<text text-anchor="middle" x="1563.78" y="-446.3" font-family="Times,serif" font-size="14.00">X</text>
</g>
<!-- y -->
<g id="node2" class="node">
<title>y</title>
<ellipse fill="none" stroke="grey" cx="966.78" cy="-378" rx="27" ry="18"/>
<text text-anchor="middle" x="966.78" y="-374.3" font-family="Times,serif" font-size="14.00">y</text>
</g>
<!-- X&#45;&gt;y -->
<g id="edge1" class="edge">
<title>X&#45;&gt;y</title>
<path fill="none" stroke="black" d="M1537.36,-445.9C1441.72,-434.69 1113.44,-396.2 1003.21,-383.27"/>
<polygon fill="black" stroke="black" points="1003.58,-379.79 993.24,-382.1 1002.76,-386.74 1003.58,-379.79"/>
</g>
<!-- x -->
<g id="node3" class="node">
<title>x</title>
<ellipse fill="none" stroke="grey" cx="2062.78" cy="-378" rx="27" ry="18"/>
<text text-anchor="middle" x="2062.78" y="-374.3" font-family="Times,serif" font-size="14.00">x</text>
</g>
<!-- X&#45;&gt;x -->
<g id="edge21" class="edge">
<title>X&#45;&gt;x</title>
<path fill="none" stroke="black" d="M1590.38,-446.19C1656.02,-439.11 1830.91,-419.45 1975.78,-396 1992.86,-393.24 2011.71,-389.62 2027.48,-386.44"/>
<polygon fill="black" stroke="black" points="2028.26,-389.85 2037.36,-384.42 2026.86,-382.99 2028.26,-389.85"/>
</g>
<!-- prose -->
<g id="node19" class="node">
<title>prose</title>
<ellipse fill="none" stroke="black" cx="1719.78" cy="-378" rx="246.96" ry="18"/>
<text text-anchor="middle" x="1719.78" y="-374.3" font-family="Times,serif" font-size="14.00">Roman français en prose (1re rédaction vers 1230)</text>
</g>
<!-- X&#45;&gt;prose -->
<g id="edge24" class="edge">
<title>X&#45;&gt;prose</title>
<path fill="none" stroke="black" d="M1585.47,-439.27C1607.99,-429.17 1643.9,-413.05 1672.93,-400.03"/>
<polygon fill="black" stroke="black" points="1674.39,-403.2 1682.08,-395.92 1671.53,-396.82 1674.39,-403.2"/>
</g>
<!-- Thomas -->
<g id="node20" class="node">
<title>Thomas</title>
<ellipse fill="none" stroke="black" cx="1407.78" cy="-378" rx="46.59" ry="18"/>
<text text-anchor="middle" x="1407.78" y="-374.3" font-family="Times,serif" font-size="14.00">Thomas</text>
</g>
<!-- X&#45;&gt;Thomas -->
<g id="edge15" class="edge">
<title>X&#45;&gt;Thomas</title>
<path fill="none" stroke="black" d="M1542.09,-439.27C1517.39,-428.18 1476.55,-409.86 1446.38,-396.32"/>
<polygon fill="black" stroke="black" points="1447.55,-393.01 1436.99,-392.11 1444.68,-399.39 1447.55,-393.01"/>
</g>
<!-- Beroul -->
<g id="node5" class="node">
<title>Beroul</title>
<ellipse fill="none" stroke="black" cx="540.78" cy="-306" rx="97.48" ry="18"/>
<text text-anchor="middle" x="540.78" y="-302.3" font-family="Times,serif" font-size="14.00">Béroul (vers 1180)</text>
</g>
<!-- y&#45;&gt;Beroul -->
<g id="edge2" class="edge">
<title>y&#45;&gt;Beroul</title>
<path fill="none" stroke="black" d="M940.78,-372.73C878.58,-362.51 719.14,-336.31 621.38,-320.24"/>
<polygon fill="black" stroke="black" points="621.67,-316.74 611.24,-318.58 620.54,-323.65 621.67,-316.74"/>
</g>
<!-- Eilhart -->
<g id="node7" class="node">
<title>Eilhart</title>
<ellipse fill="none" stroke="black" cx="966.78" cy="-306" rx="102.88" ry="18"/>
<text text-anchor="middle" x="966.78" y="-302.3" font-family="Times,serif" font-size="14.00">Eilhart (1190&#45;1200)</text>
</g>
<!-- y&#45;&gt;Eilhart -->
<g id="edge5" class="edge">
<title>y&#45;&gt;Eilhart</title>
<path fill="none" stroke="black" d="M966.78,-359.7C966.78,-351.98 966.78,-342.71 966.78,-334.11"/>
<polygon fill="black" stroke="black" points="970.28,-334.1 966.78,-324.1 963.28,-334.1 970.28,-334.1"/>
</g>
<!-- Fd -->
<g id="node17" class="node">
<title>Fd</title>
<ellipse fill="none" stroke="black" cx="2062.78" cy="-306" rx="207.96" ry="18"/>
<text text-anchor="middle" x="2062.78" y="-302.3" font-family="Times,serif" font-size="14.00">Fd Folie Tristan du ms. Douce (fin du XIIe)</text>
</g>
<!-- x&#45;&gt;Fd -->
<g id="edge22" class="edge">
<title>x&#45;&gt;Fd</title>
<path fill="none" stroke="black" d="M2062.78,-359.7C2062.78,-351.98 2062.78,-342.71 2062.78,-334.11"/>
<polygon fill="black" stroke="black" points="2066.28,-334.1 2062.78,-324.1 2059.28,-334.1 2066.28,-334.1"/>
</g>
<!-- Fb -->
<g id="node18" class="node">
<title>Fb</title>
<ellipse fill="none" stroke="black" cx="2508.78" cy="-306" rx="219.86" ry="18"/>
<text text-anchor="middle" x="2508.78" y="-302.3" font-family="Times,serif" font-size="14.00">Fb Folie Tristan du ms. de Berne (vers 1170)</text>
</g>
<!-- x&#45;&gt;Fb -->
<g id="edge23" class="edge">
<title>x&#45;&gt;Fb</title>
<path fill="none" stroke="black" d="M2089.02,-372.88C2148.92,-363.48 2298.56,-339.99 2401.97,-323.77"/>
<polygon fill="black" stroke="black" points="2402.8,-327.18 2412.14,-322.17 2401.71,-320.26 2402.8,-327.18"/>
</g>
<!-- 1 -->
<g id="node4" class="node">
<title>1</title>
<ellipse fill="none" stroke="grey" cx="189.78" cy="-306" rx="27" ry="18"/>
</g>
<!-- B2 -->
<g id="node6" class="node">
<title>B2</title>
<ellipse fill="none" stroke="black" cx="189.78" cy="-234" rx="189.57" ry="18"/>
<text text-anchor="middle" x="189.78" y="-230.3" font-family="Times,serif" font-size="14.00">B2 continuateur de Béroul (vers 1209)</text>
</g>
<!-- 1&#45;&gt;B2 -->
<g id="edge4" class="edge">
<title>1&#45;&gt;B2</title>
<path fill="none" stroke="black" stroke-dasharray="5,2" d="M189.78,-287.7C189.78,-279.98 189.78,-270.71 189.78,-262.11"/>
<polygon fill="black" stroke="black" points="193.28,-262.1 189.78,-252.1 186.28,-262.1 193.28,-262.1"/>
</g>
<!-- Beroul&#45;&gt;B2 -->
<g id="edge3" class="edge">
<title>Beroul&#45;&gt;B2</title>
<path fill="none" stroke="black" stroke-dasharray="5,2" d="M477.22,-292.32C421.36,-281.18 339.53,-264.86 277.46,-252.48"/>
<polygon fill="black" stroke="black" points="277.77,-248.98 267.28,-250.46 276.4,-255.84 277.77,-248.98"/>
</g>
<!-- Volksbuch -->
<g id="node8" class="node">
<title>Volksbuch</title>
<ellipse fill="none" stroke="black" cx="511.78" cy="-234" rx="113.98" ry="18"/>
<text text-anchor="middle" x="511.78" y="-230.3" font-family="Times,serif" font-size="14.00">Volksbuch (vers 1350)</text>
</g>
<!-- Eilhart&#45;&gt;Volksbuch -->
<g id="edge6" class="edge">
<title>Eilhart&#45;&gt;Volksbuch</title>
<path fill="none" stroke="black" d="M892.41,-293.56C812.43,-281.25 685.32,-261.7 600.26,-248.61"/>
<polygon fill="black" stroke="black" points="600.77,-245.15 590.36,-247.09 599.71,-252.07 600.77,-245.15"/>
</g>
<!-- tcheque -->
<g id="node9" class="node">
<title>tcheque</title>
<ellipse fill="none" stroke="black" cx="790.78" cy="-234" rx="147.57" ry="18"/>
<text text-anchor="middle" x="790.78" y="-230.3" font-family="Times,serif" font-size="14.00">1re trad. tchèque (vers 1300)</text>
</g>
<!-- Eilhart&#45;&gt;tcheque -->
<g id="edge7" class="edge">
<title>Eilhart&#45;&gt;tcheque</title>
<path fill="none" stroke="black" d="M927.29,-289.29C901.9,-279.19 868.69,-265.98 841.38,-255.12"/>
<polygon fill="black" stroke="black" points="842.57,-251.83 831.98,-251.39 839.98,-258.33 842.57,-251.83"/>
</g>
<!-- Ulrich -->
<g id="node10" class="node">
<title>Ulrich</title>
<ellipse fill="none" stroke="black" cx="1123.78" cy="-162" rx="128.88" ry="18"/>
<text text-anchor="middle" x="1123.78" y="-158.3" font-family="Times,serif" font-size="14.00">Ulrich de Türheim (1250)</text>
</g>
<!-- Eilhart&#45;&gt;Ulrich -->
<g id="edge8" class="edge">
<title>Eilhart&#45;&gt;Ulrich</title>
<path fill="none" stroke="black" d="M974.49,-287.74C983.85,-268.31 1001.24,-236.76 1023.78,-216 1038.05,-202.86 1056.19,-191.97 1073.08,-183.55"/>
<polygon fill="black" stroke="black" points="1074.8,-186.61 1082.31,-179.13 1071.78,-180.3 1074.8,-186.61"/>
</g>
<!-- Freyberg -->
<g id="node11" class="node">
<title>Freyberg</title>
<ellipse fill="none" stroke="black" cx="1123.78" cy="-90" rx="163.57" ry="18"/>
<text text-anchor="middle" x="1123.78" y="-86.3" font-family="Times,serif" font-size="14.00">Henrich de Freyberg (vers 1300)</text>
</g>
<!-- Eilhart&#45;&gt;Freyberg -->
<g id="edge11" class="edge">
<title>Eilhart&#45;&gt;Freyberg</title>
<path fill="none" stroke="black" d="M963.53,-287.84C958.51,-255.89 952.62,-186.66 985.78,-144 997.98,-128.31 1015.42,-117.27 1033.82,-109.49"/>
<polygon fill="black" stroke="black" points="1035.16,-112.72 1043.2,-105.82 1032.61,-106.2 1035.16,-112.72"/>
</g>
<!-- Gottfried -->
<g id="node13" class="node">
<title>Gottfried</title>
<ellipse fill="none" stroke="black" cx="1161.78" cy="-234" rx="129.18" ry="18"/>
<text text-anchor="middle" x="1161.78" y="-230.3" font-family="Times,serif" font-size="14.00">Gottfried (début du XIIIe)</text>
</g>
<!-- Eilhart&#45;&gt;Gottfried -->
<g id="edge12" class="edge">
<title>Eilhart&#45;&gt;Gottfried</title>
<path fill="none" stroke="black" stroke-dasharray="5,2" d="M1010.06,-289.46C1038.81,-279.14 1076.79,-265.51 1107.56,-254.46"/>
<polygon fill="black" stroke="black" points="1109.05,-257.65 1117.28,-250.98 1106.68,-251.06 1109.05,-257.65"/>
</g>
<!-- Ulrich&#45;&gt;Freyberg -->
<g id="edge9" class="edge">
<title>Ulrich&#45;&gt;Freyberg</title>
<path fill="none" stroke="black" stroke-dasharray="5,2" d="M1123.78,-143.7C1123.78,-135.98 1123.78,-126.71 1123.78,-118.11"/>
<polygon fill="black" stroke="black" points="1127.28,-118.1 1123.78,-108.1 1120.28,-118.1 1127.28,-118.1"/>
</g>
<!-- tcheque2 -->
<g id="node12" class="node">
<title>tcheque2</title>
<ellipse fill="none" stroke="black" cx="1123.78" cy="-18" rx="143.77" ry="18"/>
<text text-anchor="middle" x="1123.78" y="-14.3" font-family="Times,serif" font-size="14.00">2e trad. tchèque (vers 1300)</text>
</g>
<!-- Freyberg&#45;&gt;tcheque2 -->
<g id="edge10" class="edge">
<title>Freyberg&#45;&gt;tcheque2</title>
<path fill="none" stroke="black" d="M1123.78,-71.7C1123.78,-63.98 1123.78,-54.71 1123.78,-46.11"/>
<polygon fill="black" stroke="black" points="1127.28,-46.1 1123.78,-36.1 1120.28,-46.1 1127.28,-46.1"/>
</g>
<!-- Gottfried&#45;&gt;Ulrich -->
<g id="edge13" class="edge">
<title>Gottfried&#45;&gt;Ulrich</title>
<path fill="none" stroke="black" stroke-dasharray="5,2" d="M1152.39,-215.7C1148.02,-207.64 1142.73,-197.89 1137.89,-188.98"/>
<polygon fill="black" stroke="black" points="1140.92,-187.22 1133.07,-180.1 1134.76,-190.56 1140.92,-187.22"/>
</g>
<!-- Gottfried&#45;&gt;Freyberg -->
<g id="edge14" class="edge">
<title>Gottfried&#45;&gt;Freyberg</title>
<path fill="none" stroke="black" stroke-dasharray="5,2" d="M1214.8,-217.53C1232.94,-209.42 1251.3,-197.42 1261.78,-180 1270.03,-166.29 1270.84,-157.19 1261.78,-144 1250.89,-128.15 1234.55,-117.04 1216.89,-109.25"/>
<polygon fill="black" stroke="black" points="1218.13,-105.98 1207.55,-105.47 1215.51,-112.46 1218.13,-105.98"/>
</g>
<!-- Saga -->
<g id="node14" class="node">
<title>Saga</title>
<ellipse fill="none" stroke="black" cx="1217.78" cy="-306" rx="59.59" ry="18"/>
<text text-anchor="middle" x="1217.78" y="-302.3" font-family="Times,serif" font-size="14.00">Saga 1226</text>
</g>
<!-- Tristrem -->
<g id="node15" class="node">
<title>Tristrem</title>
<ellipse fill="none" stroke="black" cx="1423.78" cy="-306" rx="128.88" ry="18"/>
<text text-anchor="middle" x="1423.78" y="-302.3" font-family="Times,serif" font-size="14.00">Sir Tristrem (fin du XIIIe)</text>
</g>
<!-- Tavola -->
<g id="node16" class="node">
<title>Tavola</title>
<ellipse fill="none" stroke="black" cx="1703.78" cy="-306" rx="133.48" ry="18"/>
<text text-anchor="middle" x="1703.78" y="-302.3" font-family="Times,serif" font-size="14.00">Tavola ritonda (vers 1300)</text>
</g>
<!-- prose&#45;&gt;Tavola -->
<g id="edge25" class="edge">
<title>prose&#45;&gt;Tavola</title>
<path fill="none" stroke="black" d="M1715.83,-359.7C1714.06,-351.98 1711.95,-342.71 1709.98,-334.11"/>
<polygon fill="black" stroke="black" points="1713.33,-333.07 1707.69,-324.1 1706.51,-334.63 1713.33,-333.07"/>
</g>
<!-- Thomas&#45;&gt;Gottfried -->
<g id="edge16" class="edge">
<title>Thomas&#45;&gt;Gottfried</title>
<path fill="none" stroke="black" d="M1361.71,-374.37C1294.63,-369.46 1175.15,-356.31 1148.78,-324 1134.59,-306.61 1140.43,-280.7 1148.29,-261.31"/>
<polygon fill="black" stroke="black" points="1151.51,-262.68 1152.35,-252.11 1145.11,-259.85 1151.51,-262.68"/>
</g>
<!-- Thomas&#45;&gt;Saga -->
<g id="edge17" class="edge">
<title>Thomas&#45;&gt;Saga</title>
<path fill="none" stroke="black" d="M1375.12,-364.97C1344.51,-353.69 1298.43,-336.71 1264.05,-324.04"/>
<polygon fill="black" stroke="black" points="1264.82,-320.6 1254.23,-320.43 1262.4,-327.17 1264.82,-320.6"/>
</g>
<!-- Thomas&#45;&gt;Tristrem -->
<g id="edge18" class="edge">
<title>Thomas&#45;&gt;Tristrem</title>
<path fill="none" stroke="black" d="M1411.66,-360.05C1413.44,-352.26 1415.6,-342.82 1417.59,-334.08"/>
<polygon fill="black" stroke="black" points="1421.02,-334.8 1419.83,-324.28 1414.19,-333.24 1421.02,-334.8"/>
</g>
<!-- Thomas&#45;&gt;Tavola -->
<g id="edge19" class="edge">
<title>Thomas&#45;&gt;Tavola</title>
<path fill="none" stroke="black" stroke-dasharray="5,2" d="M1442.62,-365.97C1449.6,-363.89 1456.9,-361.8 1463.78,-360 1516.28,-346.26 1575.84,-333.09 1622.5,-323.32"/>
<polygon fill="black" stroke="black" points="1623.48,-326.69 1632.55,-321.22 1622.05,-319.84 1623.48,-326.69"/>
</g>
<!-- Thomas&#45;&gt;Fd -->
<g id="edge20" class="edge">
<title>Thomas&#45;&gt;Fd</title>
<path fill="none" stroke="black" stroke-dasharray="5,2" d="M1441.56,-365.52C1448.82,-363.4 1456.5,-361.41 1463.78,-360 1505.88,-351.84 1740.7,-332.32 1903.51,-319.39"/>
<polygon fill="black" stroke="black" points="1903.94,-322.86 1913.64,-318.58 1903.39,-315.88 1903.94,-322.86"/>
</g>
</g>
</svg>
